<svg width="25" height="25" viewBox="0 0 25 25" fill="none" xmlns="http://www.w3.org/2000/svg">
<path d="M13.658 6.83818C14.904 7.05458 16.0527 7.6505 16.9471 8.54447C17.8416 9.43844 18.4382 10.5868 18.6553 11.8327C18.6945 12.0701 18.817 12.2858 19.0008 12.4412C19.1846 12.5965 19.4178 12.6814 19.6584 12.6805C19.7124 12.6802 19.7662 12.6751 19.8193 12.6651C19.8204 12.6656 19.8216 12.6658 19.8228 12.6658C19.824 12.6658 19.8252 12.6656 19.8263 12.6651C19.9595 12.6437 20.0869 12.5954 20.2009 12.5233C20.3149 12.4511 20.4131 12.3566 20.4894 12.2454C20.5665 12.1365 20.6211 12.0134 20.6502 11.8832C20.6793 11.7531 20.6821 11.6184 20.6587 11.4871C20.372 9.82498 19.5774 8.2925 18.3841 7.10048C17.1909 5.90845 15.6576 5.11547 13.9951 4.8306C13.7289 4.78607 13.4559 4.84912 13.2362 5.00588C13.0165 5.16264 12.8681 5.40029 12.8235 5.66651C12.779 5.93274 12.842 6.20574 12.9987 6.42547C13.1555 6.64521 13.3932 6.79366 13.6594 6.83818H13.658Z" fill="#FF0028"/>
<path d="M19.9216 15.3668C19.6752 15.0935 19.3751 14.8739 19.04 14.7218C18.705 14.5697 18.3421 14.4882 17.9742 14.4826C17.606 14.4892 17.2428 14.5698 16.9064 14.7195C16.5699 14.8692 16.267 15.085 16.0156 15.3542L14.6012 16.7686L14.499 16.7168L14.4263 16.6818C14.2752 16.6049 14.1003 16.5182 13.9562 16.4286C12.4126 15.4249 11.0424 14.1771 9.89908 12.7338C9.42776 12.163 9.02185 11.5413 8.68893 10.8801C9.04428 10.5444 9.37444 10.2086 9.68502 9.89102L9.89628 9.67697C9.96623 9.60562 10.0362 9.53707 10.1103 9.46012C10.3935 9.21428 10.6205 8.91051 10.7761 8.56934C10.9317 8.22818 11.0122 7.85759 11.0122 7.48262C11.0122 7.10765 10.9317 6.73705 10.7761 6.39589C10.6205 6.05473 10.3935 5.75095 10.1103 5.5051L8.73649 4.13128C8.65675 4.05153 8.57701 3.97178 8.50006 3.89344C8.42312 3.81509 8.34337 3.73395 8.26642 3.657L8.1573 3.54509C7.88589 3.26529 7.60609 2.98548 7.31789 2.72246C7.06868 2.46116 6.76977 2.25231 6.4387 2.10816C6.10764 1.96401 5.75111 1.88748 5.39005 1.88306C4.65224 1.89463 3.94864 2.19617 3.43143 2.72246L1.70924 4.44186C1.01826 5.11921 0.595418 6.02351 0.518678 6.98807C0.452029 8.31404 0.679438 9.63834 1.18461 10.8661C2.09928 13.2491 3.42094 15.455 5.09066 17.3855C7.28091 20.0169 10.0065 22.1516 13.086 23.6475C14.5048 24.3804 16.0504 24.8357 17.6398 24.9892H17.6594C17.7615 24.9892 17.8679 24.999 17.9798 24.999C18.57 25.0121 19.1561 24.8982 19.6985 24.665C20.2409 24.4319 20.7268 24.0849 21.1234 23.6475L21.136 23.6349C21.1451 23.6263 21.1535 23.6169 21.1611 23.607C21.4298 23.2978 21.7151 23.0036 22.0159 22.7256C22.237 22.5143 22.4636 22.2989 22.6819 22.0653C23.2176 21.543 23.5261 20.8308 23.5409 20.0828C23.5321 19.7145 23.4501 19.3515 23.2994 19.0152C23.1488 18.6789 22.9327 18.376 22.6637 18.1242L19.9216 15.3668ZM19.6418 22.2919C19.4359 22.5197 19.1821 22.6991 18.8986 22.8172C18.6151 22.9352 18.3089 22.989 18.0022 22.9746C17.9378 22.9746 17.8623 22.9746 17.7909 22.9648C16.4627 22.8247 15.1725 22.437 13.987 21.8218C11.1619 20.457 8.66329 18.5008 6.66036 16.0859C5.14246 14.3323 3.93972 12.3292 3.10546 10.1652C2.70143 9.21632 2.51454 8.18914 2.55844 7.15875C2.59132 6.6717 2.80604 6.21479 3.16002 5.87865L4.86962 4.16905C5.00763 4.01634 5.19884 3.92223 5.40404 3.90603C5.6036 3.9246 5.78817 4.0199 5.91888 4.17185L5.92587 4.17884C6.22107 4.45864 6.50926 4.74963 6.81565 5.05882L6.82544 5.06861C6.96534 5.21971 7.14162 5.39458 7.3123 5.56106L8.68333 6.9321C9.08345 7.33222 9.08345 7.61343 8.68333 8.01355C8.54343 8.15345 8.39234 8.30453 8.24824 8.45283L8.14611 8.55776C7.76138 8.94809 7.39763 9.31603 7.00311 9.66578C6.99694 9.67077 6.99132 9.67639 6.98633 9.68256L6.96114 9.70775C6.76044 9.89228 6.62057 10.1335 6.5601 10.3993C6.49964 10.6652 6.52143 10.9431 6.62258 11.1963C6.62258 11.2117 6.63237 11.2243 6.63797 11.2355C6.64018 11.2433 6.64348 11.2509 6.64776 11.2579C7.07527 12.2443 7.64051 13.1652 8.32658 13.9929C9.60766 15.6131 11.1455 17.0124 12.879 18.1354C13.0893 18.2646 13.3059 18.3833 13.5281 18.4908C13.682 18.5677 13.8555 18.6572 13.9996 18.744C14.0089 18.7505 14.0187 18.7561 14.029 18.7608H14.036C14.0514 18.7678 14.0653 18.7776 14.0835 18.786C14.2844 18.8908 14.5075 18.946 14.7341 18.9468C14.9239 18.9454 15.1114 18.9045 15.2846 18.8267C15.4577 18.7489 15.6128 18.6359 15.74 18.495L17.4594 16.7756C17.592 16.6201 17.7783 16.5202 17.9812 16.4958C18.1738 16.5205 18.3499 16.6175 18.4736 16.7672L21.2675 19.5694C21.5473 19.8492 21.7277 20.1654 21.2451 20.6732C21.094 20.8369 20.9317 20.9936 20.761 21.1601C20.7233 21.1951 20.6869 21.2328 20.6491 21.2692C20.2976 21.5892 19.9659 21.9302 19.6558 22.2905L19.6418 22.2919Z" fill="#000066"/>
<path d="M24.9817 11.2886C24.516 8.59911 23.229 6.11976 21.2977 4.19095C19.3664 2.26215 16.8854 0.978467 14.1953 0.516164C13.934 0.481488 13.6694 0.549648 13.4573 0.706272C13.2452 0.862895 13.1022 1.09575 13.0585 1.35573C13.0148 1.61572 13.0737 1.88252 13.2229 2.0999C13.3721 2.31727 13.5998 2.46823 13.8581 2.52095C16.1317 2.91497 18.2279 4.00209 19.8598 5.63345C21.4916 7.26482 22.5794 9.36069 22.9742 11.6341C23.0132 11.8719 23.1357 12.088 23.3199 12.2434C23.5041 12.3989 23.7376 12.4834 23.9786 12.4819H23.9856C24.0373 12.4816 24.0888 12.4765 24.1395 12.4666C24.1406 12.4671 24.1418 12.4673 24.143 12.4673C24.1442 12.4673 24.1454 12.4671 24.1465 12.4666C24.2787 12.445 24.4054 12.3975 24.5193 12.3269C24.6331 12.2562 24.7319 12.1638 24.8099 12.0548C24.8879 11.9459 24.9436 11.8226 24.9738 11.6921C25.004 11.5615 25.0081 11.4263 24.9859 11.2942L24.9817 11.2886Z" fill="#FF0028"/>
</svg>
