<svg width="121" height="113" viewBox="0 0 121 113" fill="none" xmlns="http://www.w3.org/2000/svg">
<g filter="url(#filter0_d_368_1892)">
<path d="M82.672 78.7211L62.2707 69.4168C61.8716 69.2349 61.4378 69.1407 60.9989 69.1407C60.56 69.1407 60.1262 69.2349 59.7271 69.4168L39.3259 78.7211C38.8602 78.9332 38.3486 79.0253 37.838 78.9891C37.3273 78.9529 36.8339 78.7894 36.4032 78.5137C35.9724 78.2381 35.618 77.859 35.3725 77.4114C35.1269 76.9637 34.9981 76.4617 34.9979 75.9515V47.4668C34.998 46.8826 35.1666 46.3106 35.4836 45.8192C35.8007 45.3278 36.2529 44.9376 36.7863 44.6952L59.7312 34.2751C60.1292 34.0943 60.5615 34.0007 60.9989 34.0007C61.4363 34.0007 61.8687 34.0943 62.2667 34.2751L85.2115 44.6952C85.7449 44.9376 86.1971 45.3278 86.5142 45.8192C86.8313 46.3106 86.9999 46.8826 86.9999 47.4668V75.9515C86.9997 76.4617 86.871 76.9637 86.6254 77.4114C86.3799 77.859 86.0255 78.2381 85.5947 78.5137C85.1639 78.7894 84.6705 78.9529 84.1599 78.9891C83.6492 79.0253 83.1376 78.9332 82.672 78.7211Z" fill="#FF0028"/>
<path d="M75.9354 55.1112C71.9719 59.0464 66.605 61.256 61.01 61.256C55.4151 61.256 50.0481 59.0464 46.0847 55.1112C45.7227 54.7416 45.5214 54.2448 45.5246 53.7283C45.5277 53.2119 45.7349 52.7174 46.1014 52.3522C46.4678 51.987 46.964 51.7805 47.4823 51.7773C48.0005 51.7742 48.4991 51.9748 48.87 52.3356C50.4369 53.936 52.3093 55.2078 54.3769 56.0762C56.4445 56.9445 58.6656 57.3919 60.9093 57.3919C63.1531 57.3919 65.3741 56.9445 67.4417 56.0762C69.5094 55.2078 71.3818 53.936 72.9487 52.3356C73.1283 52.1476 73.3444 51.998 73.5838 51.8958C73.8231 51.7936 74.0809 51.7408 74.3413 51.7408C74.6018 51.7408 74.8595 51.7936 75.0989 51.8958C75.3383 51.998 75.5543 52.1476 75.734 52.3356C75.9548 52.487 76.1387 52.6861 76.272 52.918C76.4052 53.1499 76.4845 53.4086 76.5038 53.6752C76.5231 53.9417 76.4821 54.2091 76.3837 54.4577C76.2853 54.7062 76.1321 54.9296 75.9354 55.1112Z" fill="white"/>
</g>
<defs>
<filter id="filter0_d_368_1892" x="0.997925" y="0.000732422" width="120.002" height="112.996" filterUnits="userSpaceOnUse" color-interpolation-filters="sRGB">
<feFlood flood-opacity="0" result="BackgroundImageFix"/>
<feColorMatrix in="SourceAlpha" type="matrix" values="0 0 0 0 0 0 0 0 0 0 0 0 0 0 0 0 0 0 127 0" result="hardAlpha"/>
<feOffset/>
<feGaussianBlur stdDeviation="17"/>
<feComposite in2="hardAlpha" operator="out"/>
<feColorMatrix type="matrix" values="0 0 0 0 0.992157 0 0 0 0 0.00392157 0 0 0 0 0.160784 0 0 0 0.5 0"/>
<feBlend mode="normal" in2="BackgroundImageFix" result="effect1_dropShadow_368_1892"/>
<feBlend mode="normal" in="SourceGraphic" in2="effect1_dropShadow_368_1892" result="shape"/>
</filter>
</defs>
</svg>
