<svg width="21" height="27" viewBox="0 0 21 27" fill="none" xmlns="http://www.w3.org/2000/svg">
<path fill-rule="evenodd" clip-rule="evenodd" d="M10.5 15C11.39 15 12.26 14.7361 13.0001 14.2416C13.7401 13.7471 14.3169 13.0443 14.6575 12.2221C14.998 11.3998 15.0872 10.495 14.9135 9.62209C14.7399 8.74918 14.3113 7.94736 13.682 7.31802C13.0526 6.68868 12.2508 6.2601 11.3779 6.08647C10.505 5.91283 9.60019 6.00195 8.77792 6.34254C7.95566 6.68314 7.25285 7.25991 6.75839 7.99994C6.26392 8.73996 6 9.60999 6 10.5C6 11.6935 6.47411 12.8381 7.31802 13.682C8.16193 14.5259 9.30652 15 10.5 15V15Z" stroke="#FF0028" stroke-width="2"/>
<path fill-rule="evenodd" clip-rule="evenodd" d="M11.2902 25.2635C11.2902 25.2635 19.6625 15.6372 19.6625 10.556C19.6625 8.11415 18.6972 5.77227 16.9789 4.04559C15.2607 2.31892 12.9302 1.34888 10.5002 1.34888C8.07021 1.34888 5.73974 2.31892 4.02147 4.04559C2.3032 5.77227 1.33789 8.11415 1.33789 10.556C1.33789 15.6372 9.71491 25.2682 9.71491 25.2682C9.80782 25.3896 9.92732 25.4878 10.0641 25.5553C10.2009 25.6227 10.3514 25.6575 10.5037 25.6571C10.6561 25.6566 10.8063 25.6209 10.9427 25.5526C11.0791 25.4843 11.198 25.3854 11.2902 25.2635V25.2635Z" stroke="#000066" stroke-width="2"/>
</svg>
