<svg width="71" height="71" viewBox="0 0 71 71" fill="none" xmlns="http://www.w3.org/2000/svg">
<path fill-rule="evenodd" clip-rule="evenodd" d="M43.6913 20.8897L53.5624 18.3013C44.6134 13.5571 33.9097 15.032 26.6514 21.3326C25.4675 21.1141 24.247 21 22.9999 21C21.0735 21 19.2108 21.2724 17.448 21.7807C26.0711 9.74603 42.2135 5.8871 55.4077 12.3268L53.1941 4.27618C52.7421 2.58944 53.7068 0.918574 55.3935 0.466613C57.0803 0.0146514 58.7511 0.979324 59.2031 2.66607L63.5918 18.8342C63.8564 19.6107 63.7378 20.4334 63.3134 21.1686C62.9275 21.8369 62.2743 22.3509 61.4309 22.5769L45.3014 26.8988C43.6147 27.3507 41.9438 26.3861 41.4919 24.6993C41.0399 23.0126 42.0046 21.3417 43.6913 20.8897ZM17.7131 60.2938C19.7822 62.5945 22.2427 64.6134 25.0654 66.2431C37.7153 73.5466 53.4968 70.6413 62.7264 60.0834C63.4998 59 64.2221 57.2218 62.9998 56.0007C61.1074 54.11 58.9787 55.0008 57.9998 56.1094C49.9999 64.5008 38.1795 66.6856 28.1523 60.8964C27.9263 60.7659 27.7032 60.6323 27.483 60.4956C26.0418 60.8256 24.5412 61 22.9999 61C21.1698 61 19.3972 60.7542 17.7131 60.2938Z" fill="white"/>
<path d="M15.778 29.0704C18.7964 29.0704 21.1577 29.9944 22.862 31.8424C24.5663 33.6699 25.4184 36.3084 25.4184 39.758C25.4184 42.2015 24.9564 44.2959 24.0324 46.0412C23.1289 47.7865 21.8456 49.1109 20.1824 50.0144C18.5192 50.9179 16.5993 51.3696 14.4228 51.3696C13.2729 51.3696 12.1744 51.2464 11.1272 51C10.08 50.7331 9.1868 50.3635 8.4476 49.8912L10.2956 46.226C11.3428 46.9447 12.6877 47.304 14.3304 47.304C16.1579 47.304 17.6055 46.7701 18.6732 45.7024C19.7409 44.6141 20.3159 43.0536 20.398 41.0208C19.1044 42.3144 17.318 42.9612 15.0388 42.9612C13.6631 42.9612 12.4105 42.684 11.2812 42.1296C10.1519 41.5752 9.25867 40.7949 8.6016 39.7888C7.94453 38.7621 7.616 37.5815 7.616 36.2468C7.616 34.8095 7.97533 33.5467 8.694 32.4584C9.41267 31.3701 10.388 30.5385 11.62 29.9636C12.8725 29.3681 14.2585 29.0704 15.778 29.0704ZM16.1476 39.2344C17.2359 39.2344 18.1188 38.9367 18.7964 38.3412C19.4945 37.7252 19.8436 36.9449 19.8436 36.0004C19.8436 35.0559 19.5048 34.2859 18.8272 33.6904C18.1701 33.0949 17.2564 32.7972 16.086 32.7972C15.0183 32.7972 14.1456 33.0847 13.468 33.6596C12.8109 34.2345 12.4824 35.0148 12.4824 36.0004C12.4824 36.986 12.8109 37.7765 13.468 38.372C14.1456 38.9469 15.0388 39.2344 16.1476 39.2344ZM36.4361 51.3696C34.6497 51.3696 33.0584 50.9281 31.6621 50.0452C30.2659 49.1623 29.1673 47.8892 28.3665 46.226C27.5863 44.5423 27.1961 42.5403 27.1961 40.22C27.1961 37.8997 27.5863 35.908 28.3665 34.2448C29.1673 32.5611 30.2659 31.2777 31.6621 30.3948C33.0584 29.5119 34.6497 29.0704 36.4361 29.0704C38.2225 29.0704 39.8139 29.5119 41.2101 30.3948C42.6064 31.2777 43.6947 32.5611 44.4749 34.2448C45.2757 35.908 45.6761 37.8997 45.6761 40.22C45.6761 42.5403 45.2757 44.5423 44.4749 46.226C43.6947 47.8892 42.6064 49.1623 41.2101 50.0452C39.8139 50.9281 38.2225 51.3696 36.4361 51.3696ZM36.4361 47.15C37.7503 47.15 38.7769 46.5853 39.5161 45.456C40.2759 44.3267 40.6557 42.5813 40.6557 40.22C40.6557 37.8587 40.2759 36.1133 39.5161 34.984C38.7769 33.8547 37.7503 33.29 36.4361 33.29C35.1425 33.29 34.1159 33.8547 33.3561 34.984C32.6169 36.1133 32.2473 37.8587 32.2473 40.22C32.2473 42.5813 32.6169 44.3267 33.3561 45.456C34.1159 46.5853 35.1425 47.15 36.4361 47.15Z" fill="white"/>
<path d="M54.0756 51.2464C52.6999 51.2464 51.355 51.0821 50.0408 50.7536C48.7267 50.4045 47.6795 49.9733 46.8992 49.46L48.5008 46.0104C49.24 46.4827 50.1332 46.8728 51.1804 47.1808C52.2276 47.4683 53.2543 47.612 54.2604 47.612C56.2932 47.612 57.3096 47.1089 57.3096 46.1028C57.3096 45.6305 57.0324 45.2917 56.478 45.0864C55.9236 44.8811 55.0715 44.7065 53.9216 44.5628C52.5664 44.3575 51.4474 44.1213 50.5644 43.8544C49.6815 43.5875 48.9115 43.1152 48.2544 42.4376C47.6179 41.76 47.2996 40.7949 47.2996 39.5424C47.2996 38.4952 47.5974 37.5712 48.1928 36.7704C48.8088 35.9491 49.6918 35.3125 50.8416 34.8608C52.012 34.4091 53.3878 34.1832 54.9688 34.1832C56.1392 34.1832 57.2994 34.3167 58.4492 34.5836C59.6196 34.83 60.5847 35.1791 61.3444 35.6308L59.7428 39.0496C58.285 38.2283 56.6936 37.8176 54.9688 37.8176C53.9422 37.8176 53.1722 37.9613 52.6588 38.2488C52.1455 38.5363 51.8888 38.9059 51.8888 39.3576C51.8888 39.8709 52.166 40.2303 52.7204 40.4356C53.2748 40.6409 54.1578 40.836 55.3692 41.0208C56.7244 41.2467 57.8332 41.4931 58.6956 41.76C59.558 42.0064 60.3075 42.4684 60.944 43.146C61.5806 43.8236 61.8988 44.7681 61.8988 45.9796C61.8988 47.0063 61.5908 47.92 60.9748 48.7208C60.3588 49.5216 59.4554 50.1479 58.2644 50.5996C57.094 51.0308 55.6978 51.2464 54.0756 51.2464Z" fill="#FF0028"/>
</svg>
