<svg width="76" height="76" viewBox="0 0 76 76" fill="none" xmlns="http://www.w3.org/2000/svg">
<path d="M30.0688 46.9556L29.0763 48.0763C27.0834 50.0692 24.5443 51.4264 21.78 51.9762C19.0158 52.526 16.1506 52.2438 13.5468 51.1653C10.9429 50.0867 8.71737 48.2603 7.15156 45.9169C5.58575 43.5735 4.75 40.8184 4.75 38C4.75 35.1816 5.58575 32.4265 7.15156 30.0831C8.71737 27.7397 10.9429 25.9133 13.5468 24.8347C16.1506 23.7562 19.0158 23.474 21.78 24.0238C24.5443 24.5737 27.0834 25.9308 29.0763 27.9237L46.9237 48.0763C48.9166 50.0692 51.4557 51.4264 54.22 51.9762C56.9842 52.526 59.8494 52.2438 62.4532 51.1653C65.0571 50.0867 67.2826 48.2603 68.8484 45.9169C70.4142 43.5735 71.25 40.8184 71.25 38C71.25 35.1816 70.4142 32.4265 68.8484 30.0831C67.2826 27.7397 65.0571 25.9133 62.4532 24.8347C59.8494 23.7562 56.9842 23.474 54.22 24.0238C51.4557 24.5737 48.9166 25.9308 46.9237 27.9237L45.9312 29.0444" stroke="white" stroke-width="6" stroke-linecap="round" stroke-linejoin="round"/>
</svg>
