<svg width="75" height="75" viewBox="0 0 75 75" fill="none" xmlns="http://www.w3.org/2000/svg">
<path d="M6.79744 40.8201C6.21877 40.878 5.68232 41.1491 5.29233 41.5805C4.90235 42.012 4.68669 42.573 4.68726 43.1545V66.5954C4.68973 67.2138 4.93648 67.8061 5.37374 68.2434C5.811 68.6806 6.40335 68.9274 7.02173 68.9299H16.4008C17.0224 68.9322 17.6194 68.6876 18.0606 68.2499C18.5019 67.8121 18.7511 67.2169 18.7536 66.5954H44.0117C44.2965 66.5946 44.5788 66.5418 44.8448 66.4398L63.1132 59.4501C67.6774 58.0077 70.3088 54.3464 70.3088 50.7668C70.3088 48.9769 69.5097 47.068 67.837 46.0108C66.1644 44.9537 63.9763 44.8914 61.6942 45.6126C61.6527 45.6222 61.6115 45.6328 61.5706 45.6446L43.5814 52.5336H40.0156C40.1776 51.6289 40.5287 50.7542 40.3772 49.8147C40.1186 48.2108 39.395 46.5717 38.0611 45.283C36.7272 43.9944 34.7643 43.1545 32.5087 43.1545H18.7536C18.7511 42.533 18.5019 41.9379 18.0606 41.5001C17.6194 41.0623 17.0224 40.8177 16.4008 40.8201H7.02173C6.94701 40.8165 6.87216 40.8165 6.79744 40.8201ZM9.37909 45.489H14.0663V52.5336V54.8681V64.2426H9.37909V45.489ZM18.7536 47.8418H32.5087C33.7029 47.8418 34.321 48.1875 34.8065 48.6566C35.292 49.1256 35.6256 49.821 35.7449 50.5608C35.8642 51.3005 35.7319 52.0361 35.571 52.3597C35.5028 52.4967 35.5048 52.5192 35.5115 52.5336H25.7753C25.1628 52.5472 24.5799 52.8001 24.1514 53.2381C23.723 53.6762 23.4831 54.2645 23.4831 54.8773C23.4831 55.49 23.723 56.0783 24.1514 56.5164C24.5799 56.9544 25.1628 57.2073 25.7753 57.2209H35.5343H44.0117C44.2965 57.2201 44.5788 57.1673 44.8448 57.0653L63.1132 50.0756C64.5392 49.6249 65.1426 49.8556 65.3241 49.9703C65.5055 50.085 65.6216 50.213 65.6216 50.7668C65.6216 51.8743 64.5462 54.0858 61.6942 54.9871C61.6527 54.9982 61.6114 55.0104 61.5706 55.0237L43.5814 61.9081H18.7536V54.8681V47.8418Z" fill="white"/>
<path d="M58.9243 16.2222H54.337C53.9373 14.7253 53.2307 13.3259 52.2614 12.1111H58.9243C59.4748 12.1111 60.0028 11.8945 60.392 11.509C60.7813 11.1236 61 10.6007 61 10.0555C61 9.51038 60.7813 8.98755 60.392 8.60206C60.0028 8.21657 59.4748 8 58.9243 8H36.0918C35.5412 8 35.0133 8.21657 34.624 8.60206C34.2348 8.98755 34.0161 9.51038 34.0161 10.0555C34.0161 10.6007 34.2348 11.1236 34.624 11.509C35.0133 11.8945 35.5412 12.1111 36.0918 12.1111H43.3567C44.7271 12.1159 46.0682 12.5044 47.2252 13.2319C48.3822 13.9593 49.3077 14.996 49.8951 16.2222H36.0918C35.5412 16.2222 35.0133 16.4388 34.624 16.8243C34.2348 17.2097 34.0161 17.7326 34.0161 18.2777C34.0161 18.8229 34.2348 19.3457 34.624 19.7312C35.0133 20.1167 35.5412 20.3333 36.0918 20.3333H50.6216C50.3727 22.0406 49.5127 23.6026 48.1982 24.7345C46.8838 25.8665 45.2024 26.493 43.4604 26.4999H36.0918C35.9951 26.4903 35.8978 26.4903 35.8012 26.4999C35.6636 26.4787 35.5236 26.4787 35.386 26.4999C35.2445 26.5477 35.1115 26.617 34.9916 26.7055L34.7426 26.8494C34.6289 26.9511 34.5309 27.0688 34.452 27.1988C34.3824 27.2899 34.32 27.3861 34.2651 27.4866C34.2467 27.6093 34.2467 27.734 34.2651 27.8566C34.1172 28.0616 34.0309 28.3039 34.0161 28.5555C34.0064 28.6512 34.0064 28.7476 34.0161 28.8433C33.9946 28.9795 33.9946 29.1182 34.0161 29.2544C34.0642 29.3945 34.1343 29.5263 34.2236 29.6449C34.2236 29.6449 34.2236 29.8094 34.3689 29.8916L46.8231 44.2804C47.1809 44.6948 47.6903 44.9514 48.2391 44.9938C48.788 45.0362 49.3314 44.8609 49.7498 44.5066C50.1682 44.1522 50.4273 43.6478 50.4701 43.1042C50.5129 42.5607 50.3359 42.0226 49.9781 41.6082L40.6167 30.611H43.3567C46.2129 30.6228 48.9699 29.5737 51.0833 27.671C53.1968 25.7683 54.5133 23.1502 54.7729 20.3333H58.9243C59.4748 20.3333 60.0028 20.1167 60.392 19.7312C60.7813 19.3457 61 18.8229 61 18.2777C61 17.7326 60.7813 17.2097 60.392 16.8243C60.0028 16.4388 59.4748 16.2222 58.9243 16.2222Z" fill="#FF0028"/>
</svg>
