<svg width="203" height="210" viewBox="0 0 203 210" fill="none" xmlns="http://www.w3.org/2000/svg">
<path d="M87.2153 197.825C126.608 197.825 158.542 165.795 158.542 126.284C158.542 86.773 126.608 54.7429 87.2153 54.7429C47.8227 54.7429 15.8887 86.773 15.8887 126.284C15.8887 165.795 47.8227 197.825 87.2153 197.825Z" fill="#000066"/>
<path d="M89.9115 71.5949C88.6237 73.814 86.3252 77.762 81.9863 79.2259C78.1293 80.5243 75.6197 78.855 69.623 79.5439C65.9973 79.9612 63.7186 80.2196 61.3808 81.7696C57.9861 84.0219 58.1909 86.4927 55.6746 89.0827C50.2459 94.6735 40.0687 92.6995 39.5072 92.5803C35.1766 91.5996 31.2465 89.319 28.2402 86.0422C34.776 76.3922 43.5683 68.4942 53.8489 63.0382C64.1296 57.5822 75.5858 54.7342 87.2169 54.7429C89.0001 54.7429 90.7767 54.8092 92.5268 54.935C93.2269 59.3004 93.3391 65.706 89.9115 71.5949ZM68.0379 99.2575C73.0173 93.0831 78.1424 86.7278 84.5223 87.4929C89.5526 88.0963 94.2325 92.9907 95.3006 97.9856C96.6345 104.224 91.5794 107.089 93.3986 112.93C94.6356 116.902 97.2082 116.332 101.007 122.151C102.801 124.9 105.832 129.541 105.445 135.505C105.356 136.869 104.636 145.292 97.5197 148.859C92.8428 151.204 86.9865 150.658 83.2543 147.905C78.9431 144.726 80.3278 140.714 76.2801 138.685C72.5897 136.835 70.4412 139.67 64.2338 138.367C61.9457 137.886 57.7224 137 55.6747 133.915C52.8617 129.678 55.5923 123.458 59.7957 113.884C62.1635 108.49 64.0413 104.213 68.0379 99.2575ZM158.544 126.284C158.546 132.326 157.79 138.344 156.292 144.196C149.733 145.746 142.006 145.481 135.878 141.546C134.068 140.387 129.445 137.419 128.269 132.325C127.384 128.483 129.313 127.145 129.537 120.243C129.636 117.11 129.769 113.069 127.952 108.796C125.832 103.808 123.257 103.696 121.612 99.8934C119.155 94.2165 121.652 87.0226 124.465 83.0415C127.464 78.802 132.12 76.3908 137.212 75.2647C143.978 81.9138 149.35 89.8525 153.014 98.6141C156.677 107.376 158.557 116.783 158.544 126.284ZM109.566 165.393C108.033 162.857 108.462 158.606 110.517 157.126C112.403 155.768 114.58 157.521 117.174 155.855C119.076 154.633 118.672 153.199 120.344 152.357C122.652 151.196 126.456 152.399 128.269 154.901C130.604 158.122 129.169 162.853 127.001 165.393C122.604 170.547 112.355 170.01 109.566 165.393ZM88.4454 197.805C88.0358 197.819 87.6263 197.825 87.2169 197.825C75.7627 197.833 64.4754 195.071 54.3121 189.772C44.1489 184.474 35.4094 176.795 28.8348 167.387C29.8082 164.768 31.2796 162.363 33.1672 160.306C33.7483 159.677 41.0131 152.079 49.6516 153.947C52.6475 154.681 55.3873 156.22 57.5768 158.398C60.3638 161.247 59.7034 162.843 62.0149 164.757C65.0463 167.268 67.655 165.738 74.0612 166.983C77.6803 167.685 82.7722 168.679 86.1074 172.389C89.5284 176.191 89.5614 181.133 89.5944 186.061C89.6143 188.439 89.6474 193.361 88.4454 197.805Z" fill="#6767DA"/>
<g filter="url(#filter0_d_360_770)">
<path d="M190.521 31.1149L165.858 45.2591L113.134 73.7074L95.4606 97.0979C95.2485 97.3792 94.9479 97.5803 94.6075 97.6688C94.2671 97.7572 93.907 97.7278 93.5854 97.5853L93.5163 97.5505C93.2135 97.3986 92.9682 97.1521 92.8173 96.8481C92.6665 96.5441 92.6183 96.1992 92.6801 95.8653L98.2505 71.5061L100.244 62.7821L189.27 28.2539C189.641 28.1262 190.046 28.143 190.406 28.301C190.765 28.459 191.051 28.7467 191.209 29.1069C191.366 29.4671 191.383 29.8735 191.256 30.2454C191.128 30.6174 190.866 30.9277 190.521 31.1149Z" fill="url(#paint0_linear_360_770)"/>
<path d="M191.764 30.4288L191.753 30.4511C191.573 30.8125 191.258 31.0884 190.876 31.2195L172.886 37.4379L99.9651 62.6468L76.0502 38.4039C75.8424 38.1926 75.6995 37.926 75.6384 37.6358C75.5772 37.3455 75.6004 37.0437 75.7051 36.7662C75.8099 36.4887 75.9918 36.2472 76.2294 36.0704C76.4669 35.8935 76.75 35.7888 77.0452 35.7686L190.235 28.215L190.281 28.2103L190.368 28.2079L190.459 28.2094L190.541 28.2164L190.641 28.2301L190.726 28.2471L190.736 28.2525L190.817 28.2743L190.905 28.3021C190.961 28.3231 191.016 28.3469 191.07 28.3733C191.14 28.409 191.208 28.4501 191.273 28.4961C191.303 28.5168 191.331 28.5391 191.359 28.563C191.39 28.5866 191.42 28.6123 191.447 28.6398L191.534 28.7294C191.552 28.7475 191.568 28.7674 191.582 28.7889C191.59 28.7947 191.597 28.8025 191.601 28.8115L191.648 28.8739L191.661 28.8804L191.7 28.94C191.732 28.9926 191.761 29.0472 191.786 29.1035C191.8 29.1291 191.811 29.1556 191.821 29.1828C191.854 29.2697 191.879 29.3597 191.896 29.4514C191.905 29.4943 191.911 29.5377 191.915 29.5813C191.92 29.6188 191.922 29.6566 191.924 29.6945C191.925 29.7324 191.925 29.7919 191.924 29.8416C191.922 29.8843 191.917 29.9269 191.91 29.9691C191.904 30.0212 191.895 30.0728 191.882 30.1235C191.871 30.1541 191.863 30.1853 191.856 30.2169C191.83 30.2896 191.8 30.3604 191.764 30.4288L191.764 30.4288Z" fill="#FF0028"/>
<path d="M153.886 114.002C153.801 114.189 153.681 114.356 153.531 114.493C153.381 114.629 153.205 114.732 153.013 114.796C152.821 114.86 152.618 114.884 152.414 114.866C152.21 114.847 152.01 114.788 151.826 114.69C151.676 114.61 151.538 114.507 151.418 114.384L110.112 71.5702L172.855 37.5785L189.366 28.6581C189.553 28.5562 189.76 28.4963 189.974 28.4821C190.007 28.4812 190.041 28.4796 190.074 28.4811L190.165 28.4855L190.247 28.4933L190.348 28.5092L190.432 28.5279L190.443 28.534L190.524 28.5584L190.612 28.5883C190.668 28.6108 190.723 28.636 190.776 28.6638C190.848 28.7017 190.916 28.745 190.982 28.7932C191.012 28.8149 191.041 28.8382 191.069 28.863C191.1 28.8878 191.13 28.9146 191.158 28.9433L191.246 29.0362C191.264 29.0551 191.281 29.0754 191.296 29.097C191.304 29.1037 191.31 29.1121 191.314 29.1214L191.363 29.186L191.375 29.1929L191.416 29.2544C191.449 29.3087 191.479 29.3649 191.505 29.4227C191.519 29.4491 191.531 29.4765 191.541 29.5045C191.576 29.5939 191.603 29.6862 191.621 29.7802C191.63 29.8241 191.638 29.8683 191.643 29.9129C191.649 29.9507 191.651 29.9893 191.654 30.0279C191.656 30.0666 191.657 30.1281 191.657 30.179C191.655 30.2226 191.651 30.2659 191.646 30.3089C191.641 30.3616 191.632 30.4138 191.621 30.4651C191.611 30.4961 191.603 30.5278 191.597 30.56C191.575 30.6338 191.549 30.7059 191.518 30.7756L191.509 30.796L153.886 114.002Z" fill="#FF0028"/>
<path d="M121.73 84.8714L95.2478 97.5933C95.0365 97.6946 94.8036 97.744 94.567 97.7376C94.3304 97.7311 94.0962 97.669 93.8826 97.556C93.6855 97.4524 93.5109 97.3071 93.3709 97.1298C93.1445 96.8493 93.0141 96.502 93.0006 96.1441C92.9871 95.7861 93.0914 95.4386 93.2966 95.1577L109.338 72.0179L121.73 84.8714Z" fill="#960018"/>
<path d="M109.596 72.1532L121.851 84.5685L117.926 86.4603L107.763 74.6936L109.596 72.1532Z" fill="#8A0117"/>
</g>
<path d="M94.0597 89.0029C94.6021 88.6353 94.7438 87.8975 94.3762 87.3551C94.0086 86.8127 93.2709 86.671 92.7284 87.0386L94.0597 89.0029ZM21.8797 153.821L22.7879 154.585L21.8797 153.821ZM43.0921 175.632C43.6794 175.342 43.9197 174.63 43.6289 174.043C43.3382 173.456 42.6264 173.215 42.0392 173.506L43.0921 175.632ZM38.3386 175.319C37.7488 175.604 37.5022 176.314 37.7877 176.903C38.0732 177.493 38.7828 177.74 39.3726 177.454L38.3386 175.319ZM31.8927 180.974C32.4891 180.703 32.7524 179.999 32.4808 179.403C32.2093 178.807 31.5057 178.543 30.9094 178.815L31.8927 180.974ZM23.4205 182.073C22.8145 182.322 22.5252 183.015 22.7744 183.621C23.0236 184.227 23.7169 184.517 24.3229 184.267L23.4205 182.073ZM16.5188 187.197C17.1409 186.992 17.4784 186.321 17.2727 185.699C17.0669 185.076 16.3958 184.739 15.7737 184.945L16.5188 187.197ZM8.03561 186.844C7.38451 186.917 6.91635 187.505 6.98995 188.156C7.06355 188.807 7.65105 189.275 8.30215 189.202L8.03561 186.844ZM0.803832 184.628C0.801599 185.284 1.33097 185.817 1.98622 185.819C2.64147 185.821 3.17447 185.292 3.1767 184.636L0.803832 184.628ZM5.78515 177.546C6.10401 176.973 5.89845 176.251 5.32601 175.932C4.75357 175.613 4.03103 175.819 3.71217 176.391L5.78515 177.546ZM8.2067 169.354C7.83007 169.89 7.95943 170.63 8.49563 171.007C9.03183 171.383 9.77182 171.254 10.1484 170.718L8.2067 169.354ZM15.0337 164.14C15.4357 163.622 15.342 162.877 14.8245 162.475C14.307 162.073 13.5616 162.167 13.1597 162.684L15.0337 164.14ZM18.3252 156.238C17.9087 156.744 17.9813 157.492 18.4872 157.908C18.9931 158.325 19.7408 158.252 20.1572 157.746L18.3252 156.238ZM25.4103 151.494C25.8365 150.996 25.7785 150.247 25.2808 149.821C24.7831 149.395 24.0342 149.453 23.608 149.95L25.4103 151.494ZM28.9663 143.81C28.5308 144.3 28.5747 145.05 29.0643 145.485C29.5538 145.921 30.3038 145.877 30.7393 145.387L28.9663 143.81ZM36.1816 139.388C36.6266 138.907 36.5974 138.156 36.1165 137.711C35.6355 137.266 34.8848 137.295 34.4398 137.776L36.1816 139.388ZM40.0319 131.854C39.5771 132.326 39.591 133.077 40.0627 133.531C40.5345 133.986 41.2856 133.972 41.7403 133.5L40.0319 131.854ZM47.4246 127.727C47.8892 127.265 47.8914 126.513 47.4294 126.049C46.9674 125.584 46.2162 125.582 45.7516 126.044L47.4246 127.727ZM51.5918 120.364C51.117 120.815 51.0982 121.566 51.5498 122.041C52.0014 122.516 52.7524 122.535 53.2272 122.083L51.5918 120.364ZM59.1588 116.569C59.6439 116.128 59.68 115.378 59.2394 114.893C58.7989 114.408 58.0485 114.372 57.5635 114.812L59.1588 116.569ZM63.6636 109.403C63.1682 109.832 63.1142 110.581 63.543 111.076C63.9718 111.572 64.7211 111.626 65.2166 111.197L63.6636 109.403ZM71.401 105.976C71.9069 105.559 71.9795 104.812 71.5631 104.306C71.1467 103.8 70.3989 103.727 69.893 104.144L71.401 105.976ZM76.2539 99.0428C75.7375 99.4461 75.6458 100.192 76.0491 100.708C76.4524 101.225 77.198 101.316 77.7144 100.913L76.2539 99.0428ZM84.1576 96.016C84.6845 95.6265 84.7959 94.8836 84.4064 94.3567C84.0168 93.8298 83.2739 93.7184 82.747 94.1079L84.1576 96.016ZM89.3713 89.348C88.834 89.723 88.7025 90.4626 89.0776 90.9999C89.4526 91.5372 90.1922 91.6687 90.7295 91.2937L89.3713 89.348ZM42.0392 173.506C40.7753 174.132 39.5418 174.736 38.3386 175.319L39.3726 177.454C40.5825 176.869 41.8223 176.261 43.0921 175.632L42.0392 173.506ZM30.9094 178.815C28.2225 180.038 25.7268 181.124 23.4205 182.073L24.3229 184.267C26.661 183.306 29.1841 182.208 31.8927 180.974L30.9094 178.815ZM15.7737 184.945C12.6027 185.993 10.0326 186.618 8.03561 186.844L8.30215 189.202C10.5291 188.95 13.2735 188.271 16.5188 187.197L15.7737 184.945ZM3.1767 184.636C3.18184 183.129 3.97039 180.804 5.78515 177.546L3.71217 176.391C1.87021 179.698 0.811164 182.477 0.803832 184.628L3.1767 184.636ZM10.1484 170.718C11.5642 168.702 13.1928 166.51 15.0337 164.14L13.1597 162.684C11.3005 165.078 9.64858 167.301 8.2067 169.354L10.1484 170.718ZM20.1572 157.746C21.0031 156.719 21.88 155.665 22.7879 154.585L20.9716 153.058C20.0587 154.144 19.1765 155.204 18.3252 156.238L20.1572 157.746ZM22.7879 154.585C23.6635 153.543 24.5376 152.513 25.4103 151.494L23.608 149.95C22.7306 150.975 21.8518 152.011 20.9716 153.058L22.7879 154.585ZM30.7393 145.387C32.5605 143.34 34.3747 141.34 36.1816 139.388L34.4398 137.776C32.6224 139.74 30.7978 141.751 28.9663 143.81L30.7393 145.387ZM41.7403 133.5C43.6442 131.525 45.5391 129.601 47.4246 127.727L45.7516 126.044C43.8541 127.93 41.9473 129.866 40.0319 131.854L41.7403 133.5ZM53.2272 122.083C55.216 120.191 57.1934 118.354 59.1588 116.569L57.5635 114.812C55.5846 116.61 53.5938 118.459 51.5918 120.364L53.2272 122.083ZM65.2166 111.197C67.2929 109.4 69.3546 107.66 71.401 105.976L69.893 104.144C67.8315 105.841 65.7548 107.593 63.6636 109.403L65.2166 111.197ZM77.7144 100.913C79.8812 99.2207 82.0293 97.5894 84.1576 96.016L82.747 94.1079C80.6019 95.6937 78.4372 97.3377 76.2539 99.0428L77.7144 100.913ZM90.7295 91.2937C91.8456 90.5146 92.9557 89.7511 94.0597 89.0029L92.7284 87.0386C91.6154 87.793 90.4963 88.5626 89.3713 89.348L90.7295 91.2937Z" fill="#A5A5FE"/>
<defs>
<filter id="filter0_d_360_770" x="47.1309" y="16.3045" width="173.269" height="143.652" filterUnits="userSpaceOnUse" color-interpolation-filters="sRGB">
<feFlood flood-opacity="0" result="BackgroundImageFix"/>
<feColorMatrix in="SourceAlpha" type="matrix" values="0 0 0 0 0 0 0 0 0 0 0 0 0 0 0 0 0 0 127 0" result="hardAlpha"/>
<feOffset dy="16.6102"/>
<feGaussianBlur stdDeviation="14.2373"/>
<feComposite in2="hardAlpha" operator="out"/>
<feColorMatrix type="matrix" values="0 0 0 0 0.737413 0 0 0 0 0 0 0 0 0 0 0 0 0 0.25 0"/>
<feBlend mode="normal" in2="BackgroundImageFix" result="effect1_dropShadow_360_770"/>
<feBlend mode="normal" in="SourceGraphic" in2="effect1_dropShadow_360_770" result="shape"/>
</filter>
<linearGradient id="paint0_linear_360_770" x1="171.304" y1="35.7584" x2="93.5346" y2="92.6755" gradientUnits="userSpaceOnUse">
<stop stop-color="#730012"/>
<stop offset="1" stop-color="#E30024"/>
</linearGradient>
</defs>
</svg>
