<svg width="28" height="28" viewBox="0 0 28 28" fill="none" xmlns="http://www.w3.org/2000/svg">
<path d="M24 9.675C23.987 9.56017 23.9618 9.44704 23.925 9.3375V9.225C23.8649 9.09647 23.7847 8.97833 23.6875 8.875L16.1875 1.375C16.0842 1.27777 15.966 1.1976 15.8375 1.1375H15.7125C15.591 1.0725 15.4603 1.02615 15.325 1H7.75C6.75544 1 5.80161 1.39509 5.09835 2.09835C4.39509 2.80161 4 3.75544 4 4.75V22.25C4 23.2446 4.39509 24.1984 5.09835 24.9017C5.80161 25.6049 6.75544 26 7.75 26H20.25C21.2446 26 22.1984 25.6049 22.9017 24.9017C23.6049 24.1984 24 23.2446 24 22.25V9.75C24 9.75 24 9.75 24 9.675ZM16.5 5.2625L19.7375 8.5H17.75C17.4185 8.5 17.1005 8.3683 16.8661 8.13388C16.6317 7.89946 16.5 7.58152 16.5 7.25V5.2625ZM21.5 22.25C21.5 22.5815 21.3683 22.8995 21.1339 23.1339C20.8995 23.3683 20.5815 23.5 20.25 23.5H7.75C7.41848 23.5 7.10054 23.3683 6.86612 23.1339C6.6317 22.8995 6.5 22.5815 6.5 22.25V4.75C6.5 4.41848 6.6317 4.10054 6.86612 3.86612C7.10054 3.6317 7.41848 3.5 7.75 3.5H14V7.25C14 8.24456 14.3951 9.19839 15.0983 9.90165C15.8016 10.6049 16.7554 11 17.75 11H21.5V22.25Z" fill="#000066"/>
<path d="M18 16.9994C18 17.3025 17.8796 17.5933 17.6652 17.8076C17.4509 18.022 17.1601 18.1424 16.857 18.1424H15.1387V19.857C15.1387 20.1601 15.0182 20.4509 14.8039 20.6652C14.5895 20.8796 14.2988 21 13.9956 21C13.6925 21 13.4017 20.8796 13.1874 20.6652C12.973 20.4509 12.8526 20.1601 12.8526 19.857V18.1386H11.143C10.8399 18.1386 10.5491 18.0182 10.3348 17.8039C10.1204 17.5895 10 17.2988 10 16.9956C10 16.6925 10.1204 16.4017 10.3348 16.1874C10.5491 15.973 10.8399 15.8526 11.143 15.8526H12.8576V14.143C12.8576 13.8399 12.978 13.5492 13.1924 13.3348C13.4067 13.1204 13.6975 13 14.0006 13C14.3038 13 14.5945 13.1204 14.8089 13.3348C15.0232 13.5492 15.1437 13.8399 15.1437 14.143V15.8576H16.8582C17.1609 15.8579 17.4512 15.9783 17.6652 16.1924C17.8793 16.4064 17.9997 16.6967 18 16.9994Z" fill="#FF0028"/>
</svg>
