<svg width="32" height="33" viewBox="0 0 32 33" fill="none" xmlns="http://www.w3.org/2000/svg">
<g clip-path="url(#clip0_202_14)">
<path d="M25.6008 -0.000336244H5.60078C4.10809 -0.0178719 2.66938 0.547338 1.60078 1.57109C1.08176 2.08871 0.672956 2.70272 0.398242 3.37724C0.123527 4.05176 -0.0115909 4.77328 0.000778645 5.49966V18.8568C0.000778645 19.2736 0.16935 19.6733 0.469408 19.968C0.769466 20.2627 1.17643 20.4282 1.60078 20.4282H8.00078V31.4282C8.00078 31.845 8.16935 32.2447 8.46941 32.5394C8.76947 32.8341 9.17643 32.9997 9.60078 32.9997H30.4008C30.8251 32.9997 31.2321 32.8341 31.5322 32.5394C31.8322 32.2447 32.0008 31.845 32.0008 31.4282V6.28538C32.0008 4.6183 31.3265 3.01951 30.1263 1.84071C28.926 0.661907 27.2982 -0.000336244 25.6008 -0.000336244ZM8.00078 17.2854H3.20078V5.49966C3.20078 4.87451 3.45363 4.27496 3.90372 3.83291C4.35381 3.39086 4.96426 3.14252 5.60078 3.14252C6.2373 3.14252 6.84775 3.39086 7.29784 3.83291C7.74792 4.27496 8.00078 4.87451 8.00078 5.49966V17.2854ZM28.8008 29.8568H11.2008V5.49966C11.2006 5.10867 11.1577 4.71882 11.0728 4.33681C11.0807 4.26978 11.0748 4.20189 11.0556 4.13712C11.0363 4.07236 11.0041 4.01202 10.9608 3.95966C10.8921 3.71844 10.8066 3.48216 10.7048 3.25252V3.14252H25.6008C26.4495 3.14252 27.2634 3.47364 27.8635 4.06304C28.4636 4.65244 28.8008 5.45184 28.8008 6.28538V29.8568Z" fill="#000066"/>
<path d="M24.0004 6.2854H16.0004C15.576 6.2854 15.1691 6.45096 14.869 6.74566C14.569 7.04036 14.4004 7.44006 14.4004 7.85683C14.4004 8.2736 14.569 8.6733 14.869 8.968C15.1691 9.2627 15.576 9.42826 16.0004 9.42826H24.0004C24.4247 9.42826 24.8317 9.2627 25.1318 8.968C25.4318 8.6733 25.6004 8.2736 25.6004 7.85683C25.6004 7.44006 25.4318 7.04036 25.1318 6.74566C24.8317 6.45096 24.4247 6.2854 24.0004 6.2854Z" fill="#FF0028"/>
<path d="M24.0004 10.9998H16.0004C15.576 10.9998 15.1691 11.1653 14.869 11.46C14.569 11.7547 14.4004 12.1544 14.4004 12.5712C14.4004 12.988 14.569 13.3877 14.869 13.6824C15.1691 13.9771 15.576 14.1426 16.0004 14.1426H24.0004C24.4247 14.1426 24.8317 13.9771 25.1318 13.6824C25.4318 13.3877 25.6004 12.988 25.6004 12.5712C25.6004 12.1544 25.4318 11.7547 25.1318 11.46C24.8317 11.1653 24.4247 10.9998 24.0004 10.9998Z" fill="#FF0028"/>
<path d="M23.12 18.8174C23.349 19.1707 23.5317 19.5508 23.664 19.9489H25.1904V21.1337H23.9552V21.3191C23.9702 21.8815 23.7619 22.4276 23.3744 22.8419C22.9631 23.3862 22.3927 23.7945 21.7392 24.0126L24.152 27.6269H21.624L19.4592 24.3551H16.5952V22.504H19.2992C19.9066 22.55 20.511 22.383 21.0048 22.0326C21.3776 21.7183 21.576 21.6523 21.5856 21.1384H16.0064V19.9536H21.2528C21.0312 19.6167 20.7296 19.3378 20.374 19.1407C20.0184 18.9436 19.6193 18.8343 19.2112 18.8221H16V17.6326H25.184V18.8174H23.12Z" fill="#FF0028" stroke="#FF0028" stroke-width="0.4"/>
</g>
<defs>
<clipPath id="clip0_202_14">
<rect width="32" height="33" fill="white" transform="translate(0 -0.000244141)"/>
</clipPath>
</defs>
</svg>
