<svg width="28" height="28" viewBox="0 0 28 28" fill="none" xmlns="http://www.w3.org/2000/svg">
<path d="M23.7914 2H3.73139C3.61162 2 3.49303 2.02359 3.38238 2.06942C3.27173 2.11525 3.17119 2.18243 3.08651 2.26712C3.00182 2.35181 2.93464 2.45234 2.88881 2.56299C2.84298 2.67364 2.81939 2.79223 2.81939 2.912V14.765C2.81939 14.794 2.83339 14.819 2.83639 14.847C2.15605 15.5371 1.64188 16.3731 1.33291 17.2916C1.02395 18.2101 0.928301 19.1869 1.05324 20.1479C1.17818 21.1088 1.52042 22.0287 2.05398 22.8377C2.58754 23.6466 3.29839 24.3234 4.13257 24.8165C4.96674 25.3097 5.90232 25.6064 6.86827 25.6839C7.83422 25.7615 8.80515 25.618 9.70736 25.2643C10.6096 24.9106 11.4193 24.356 12.0752 23.6426C12.731 22.9292 13.2157 22.0757 13.4924 21.147H23.7924C24.5175 21.1462 25.2127 20.8578 25.7255 20.3451C26.2382 19.8323 26.5266 19.1371 26.5274 18.412V4.735C26.5266 4.0097 26.2381 3.31436 25.7251 2.80159C25.2121 2.28882 24.5167 2.00053 23.7914 2ZM7.37939 23.883C6.47771 23.883 5.59627 23.6156 4.84654 23.1147C4.09682 22.6137 3.51248 21.9017 3.16742 21.0687C2.82236 20.2356 2.73208 19.3189 2.90799 18.4346C3.0839 17.5502 3.5181 16.7379 4.15569 16.1003C4.79328 15.4627 5.60561 15.0285 6.48997 14.8526C7.37433 14.6767 8.29099 14.767 9.12404 15.112C9.95709 15.4571 10.6691 16.0414 11.1701 16.7912C11.671 17.5409 11.9384 18.4223 11.9384 19.324C11.9371 20.5327 11.4563 21.6915 10.6016 22.5462C9.74694 23.4009 8.58811 23.8817 7.37939 23.883ZM24.7034 12.942H22.4234C22.0671 12.9324 21.7287 12.7841 21.4801 12.5287C21.2315 12.2733 21.0924 11.9309 21.0924 11.5745C21.0924 11.2181 21.2315 10.8757 21.4801 10.6203C21.7287 10.3649 22.0671 10.2166 22.4234 10.207H24.7024L24.7034 12.942ZM24.7034 8.383H22.4234C21.577 8.383 20.7652 8.71925 20.1667 9.31777C19.5681 9.91629 19.2319 10.7281 19.2319 11.5745C19.2319 12.4209 19.5681 13.2327 20.1667 13.8312C20.7652 14.4298 21.577 14.766 22.4234 14.766H24.7024V18.413C24.7021 18.6548 24.606 18.8866 24.435 19.0576C24.264 19.2286 24.0322 19.3247 23.7904 19.325H13.7614C13.7638 18.2475 13.4928 17.1871 12.9738 16.2429C12.4547 15.2987 11.7046 14.5016 10.7936 13.9263C9.88255 13.351 8.84045 13.0163 7.76482 12.9534C6.68919 12.8906 5.6152 13.1017 4.64339 13.567V3.824H23.7914C24.0332 3.82427 24.265 3.92043 24.436 4.09141C24.607 4.26239 24.7031 4.4942 24.7034 4.736V8.383Z" fill="#000066" stroke="#000066" stroke-width="0.5"/>
<path d="M10.5705 19.3241C10.5705 19.5659 10.4744 19.7979 10.3034 19.9689C10.1323 20.14 9.90038 20.2361 9.6585 20.2361H8.2875V21.6041C8.2875 21.8459 8.19142 22.0779 8.02038 22.2489C7.84935 22.42 7.61738 22.5161 7.3755 22.5161C7.13362 22.5161 6.90165 22.42 6.73062 22.2489C6.55959 22.0779 6.4635 21.8459 6.4635 21.6041V20.2331H5.0995C4.85762 20.2331 4.62565 20.137 4.45462 19.9659C4.28359 19.7949 4.1875 19.5629 4.1875 19.3211C4.1875 19.0792 4.28359 18.8472 4.45462 18.6762C4.62565 18.5051 4.85762 18.4091 5.0995 18.4091H6.4675V17.0451C6.4675 16.8032 6.56359 16.5712 6.73462 16.4002C6.90565 16.2291 7.13762 16.1331 7.3795 16.1331C7.62138 16.1331 7.85335 16.2291 8.02438 16.4002C8.19542 16.5712 8.2915 16.8032 8.2915 17.0451V18.4131H9.6595C9.90103 18.4133 10.1326 18.5094 10.3034 18.6802C10.4742 18.851 10.5702 19.0825 10.5705 19.3241Z" fill="#FF0028"/>
</svg>
