<svg width="28" height="28" viewBox="0 0 28 28" fill="none" xmlns="http://www.w3.org/2000/svg">
<path d="M13.29 19.6925C13.383 19.7862 13.4936 19.8606 13.6154 19.9114C13.7373 19.9622 13.868 19.9883 14 19.9883C14.132 19.9883 14.2627 19.9622 14.3846 19.9114C14.5064 19.8606 14.617 19.7862 14.71 19.6925L18.8 15.5925C19.75 14.6431 20.397 13.4332 20.6593 12.116C20.9216 10.7987 20.7873 9.43332 20.2735 8.1924C19.7597 6.95148 18.8894 5.89082 17.7727 5.14457C16.656 4.39832 15.3431 4 14 4C12.6569 4 11.344 4.39832 10.2273 5.14457C9.11062 5.89082 8.24033 6.95148 7.72652 8.1924C7.2127 9.43332 7.07845 10.7987 7.34073 12.116C7.60301 13.4332 8.25005 14.6431 9.2 15.5925L13.29 19.6925ZM9.23 10.3225C9.29833 9.60953 9.52502 8.9208 9.89352 8.30662C10.262 7.69245 10.7631 7.16832 11.36 6.77251C12.1442 6.25761 13.0619 5.98327 14 5.98327C14.9381 5.98327 15.8558 6.25761 16.64 6.77251C17.233 7.16696 17.7311 7.68791 18.0987 8.29789C18.4663 8.90788 18.6942 9.59174 18.7659 10.3003C18.8376 11.0089 18.7514 11.7245 18.5135 12.3958C18.2756 13.067 17.8919 13.6772 17.39 14.1825L14 17.5725L10.61 14.1825C10.1075 13.6821 9.72293 13.076 9.48421 12.4083C9.24548 11.7406 9.15864 11.028 9.23 10.3225ZM21 21.9825H7C6.73478 21.9825 6.48043 22.0879 6.29289 22.2754C6.10536 22.4629 6 22.7173 6 22.9825C6 23.2477 6.10536 23.5021 6.29289 23.6896C6.48043 23.8772 6.73478 23.9825 7 23.9825H21C21.2652 23.9825 21.5196 23.8772 21.7071 23.6896C21.8946 23.5021 22 23.2477 22 22.9825C22 22.7173 21.8946 22.4629 21.7071 22.2754C21.5196 22.0879 21.2652 21.9825 21 21.9825Z" fill="#000066"/>
<path d="M15.1111 12.4452C14.7822 12.6649 14.3956 12.7822 14 12.7822C13.4696 12.7822 12.9609 12.5715 12.5858 12.1964C12.2107 11.8214 12 11.3127 12 10.7822C12 10.3867 12.1173 9.99999 12.3371 9.67109C12.5568 9.34219 12.8692 9.08584 13.2346 8.93447C13.6001 8.78309 14.0022 8.74349 14.3902 8.82066C14.7781 8.89783 15.1345 9.08831 15.4142 9.36801C15.6939 9.64772 15.8844 10.0041 15.9616 10.392C16.0387 10.78 15.9991 11.1821 15.8478 11.5476C15.6964 11.913 15.44 12.2254 15.1111 12.4452Z" fill="#FF0028"/>
</svg>
