<svg width="38" height="38" viewBox="0 0 38 38" fill="none" xmlns="http://www.w3.org/2000/svg">
<path d="M30 14.7158C29.9857 14.5871 29.958 14.4604 29.9175 14.3378V14.2118C29.8514 14.0678 29.7632 13.9355 29.6562 13.8198L21.4062 5.41976C21.2926 5.31086 21.1626 5.22107 21.0213 5.15376H20.8837C20.7501 5.08096 20.6064 5.02905 20.4575 4.99976H12.125C11.031 4.99976 9.98177 5.44225 9.20818 6.22991C8.4346 7.01756 8 8.08585 8 9.19976V28.7998C8 29.9137 8.4346 30.982 9.20818 31.7696C9.98177 32.5573 11.031 32.9998 12.125 32.9998H25.875C26.969 32.9998 28.0182 32.5573 28.7918 31.7696C29.5654 30.982 30 29.9137 30 28.7998V14.7998C30 14.7998 30 14.7998 30 14.7158ZM21.75 9.77376L25.3113 13.3998H23.125C22.7603 13.3998 22.4106 13.2523 22.1527 12.9897C21.8949 12.7272 21.75 12.3711 21.75 11.9998V9.77376ZM27.25 28.7998C27.25 29.1711 27.1051 29.5272 26.8473 29.7897C26.5894 30.0523 26.2397 30.1998 25.875 30.1998H12.125C11.7603 30.1998 11.4106 30.0523 11.1527 29.7897C10.8949 29.5272 10.75 29.1711 10.75 28.7998V9.19976C10.75 8.82845 10.8949 8.47236 11.1527 8.20981C11.4106 7.94726 11.7603 7.79976 12.125 7.79976H19V11.9998C19 13.1137 19.4346 14.182 20.2082 14.9696C20.9818 15.7573 22.031 16.1998 23.125 16.1998H27.25V28.7998Z" fill="#000066"/>
<path d="M18.0282 22.2097C18.286 21.9472 18.6358 21.7997 19.0004 21.7997C19.3651 21.7997 19.7149 21.9472 19.9727 22.2097C20.2306 22.4723 20.3754 22.8284 20.3754 23.1997V25.9997C20.3754 26.371 20.2306 26.7271 19.9727 26.9896C19.7149 27.2522 19.3651 27.3997 19.0004 27.3997C18.6358 27.3997 18.286 27.2522 18.0282 26.9896C17.7703 26.7271 17.6254 26.371 17.6254 25.9997V23.1997C17.6254 22.8284 17.7703 22.4723 18.0282 22.2097Z" fill="#FF0028"/>
<path d="M18.7254 17.5997C18.9963 17.5552 19.274 17.5942 19.5229 17.7117C19.6896 17.7826 19.843 17.882 19.9767 18.0057C20.1041 18.1365 20.205 18.2916 20.2734 18.4622C20.3418 18.6328 20.3765 18.8154 20.3754 18.9997C20.3765 19.1839 20.3418 19.3666 20.2734 19.5371C20.205 19.7077 20.1041 19.8629 19.9767 19.9937C19.8482 20.1234 19.6958 20.2261 19.5283 20.2958C19.3608 20.3654 19.1814 20.4007 19.0004 20.3997C18.8201 20.4044 18.6411 20.3661 18.4779 20.2877C18.3092 20.221 18.155 20.1211 18.0242 19.9937C17.8968 19.8629 17.7959 19.7077 17.7275 19.5371C17.6591 19.3666 17.6244 19.1839 17.6254 18.9997C17.6207 18.8107 17.6536 18.6228 17.7221 18.4471C17.7907 18.2715 17.8934 18.1118 18.0242 17.9777L18.2304 17.8097L18.4779 17.6837L18.7254 17.5997Z" fill="#FF0028"/>
</svg>
