<svg width="38" height="38" viewBox="0 0 38 38" fill="none" xmlns="http://www.w3.org/2000/svg">
<g clip-path="url(#clip0_194_561)">
<path d="M16.5841 18.6056L14.4138 3.41058C14.3984 3.30201 14.4066 3.19134 14.4376 3.08618C14.4687 2.98101 14.5219 2.88381 14.5938 2.801C14.6656 2.71818 14.7545 2.65173 14.8542 2.60617C14.9539 2.56062 15.0623 2.53695 15.1719 2.53687H25.7678" stroke="#FF0028" stroke-width="3" stroke-linecap="round" stroke-linejoin="round"/>
<path d="M21.1935 20.425L19.9083 7.57258C19.8978 7.47419 19.9081 7.37475 19.9387 7.28064C19.9693 7.18654 20.0194 7.09995 20.0857 7.02654C20.152 6.95313 20.2331 6.89456 20.3237 6.85466C20.4142 6.81475 20.5122 6.79442 20.6111 6.79498H30.2894C30.3918 6.79366 30.4932 6.81471 30.5865 6.85674C30.6798 6.89878 30.7628 6.96074 30.8296 7.03826C30.8964 7.11578 30.9455 7.20697 30.9733 7.30547C31.0011 7.40396 31.007 7.5074 30.9906 7.60842L29.0546 20.5129" stroke="#FF0028" stroke-width="3" stroke-linecap="round" stroke-linejoin="round"/>
<path d="M25.0125 12.9998C25.2091 13.0023 25.4006 13.0626 25.563 13.1733C25.7255 13.284 25.8517 13.4402 25.926 13.6223C26.0002 13.8043 26.0191 14.0042 25.9804 14.1969C25.9417 14.3896 25.847 14.5665 25.7082 14.7058C25.5694 14.845 25.3926 14.9402 25.2 14.9796C25.0074 15.0189 24.8075 15.0005 24.6252 14.9268C24.443 14.8532 24.2865 14.7275 24.1753 14.5654C24.0641 14.4032 24.0032 14.2119 24.0001 14.0153C23.998 13.8816 24.0228 13.7488 24.0729 13.6249C24.123 13.501 24.1974 13.3885 24.2918 13.2939C24.3862 13.1992 24.4986 13.1244 24.6224 13.0739C24.7462 13.0234 24.8788 12.9982 25.0125 12.9998Z" stroke="#FF0028" stroke-width="3" stroke-linecap="round" stroke-linejoin="round"/>
<path d="M6.22852 21.4131H9.73609C9.83193 21.4095 9.92742 21.4263 10.0163 21.4624C10.1051 21.4985 10.1854 21.5529 10.2516 21.6223C10.3179 21.6916 10.3687 21.7743 10.4007 21.8647C10.4327 21.9551 10.4452 22.0512 10.4373 22.1468V35.3441C10.4452 35.4396 10.4327 35.5358 10.4007 35.6263C10.3687 35.7167 10.3179 35.7992 10.2516 35.8685C10.1854 35.9379 10.1051 35.9924 10.0163 36.0285C9.92742 36.0646 9.83193 36.0814 9.73609 36.0779H6.22852" stroke="#000066" stroke-width="3" stroke-linecap="round" stroke-linejoin="round"/>
<path d="M16.2621 18.3059L13.5663 21.6622C13.3892 21.8823 13.1667 22.0617 12.9141 22.1883C12.6614 22.3149 12.3845 22.3857 12.1021 22.3959H10.4395" stroke="#000066" stroke-width="3" stroke-linecap="round" stroke-linejoin="round"/>
<path d="M10.4395 32.2614C13.4459 34.539 16.1905 36.0715 17.9622 36.0715H26.7604C27.8276 36.0715 28.4979 35.9968 28.9599 34.6074C29.6652 31.0612 30.1542 27.4754 30.4241 23.8699C30.4241 23.1362 29.6904 22.4058 28.2245 22.4058H19.9014" stroke="#000066" stroke-width="3" stroke-linecap="round" stroke-linejoin="round"/>
</g>
<defs>
<clipPath id="clip0_194_561">
<rect width="37.3333" height="37.3333" fill="white" transform="translate(0.333984 0.333252)"/>
</clipPath>
</defs>
</svg>
