<svg width="28" height="28" viewBox="0 0 28 28" fill="none" xmlns="http://www.w3.org/2000/svg">
<g clip-path="url(#clip0_165_1590)">
<path d="M24.0625 8.75H22.75V4.375C22.7493 3.79505 22.5186 3.23904 22.1085 2.82896C21.6985 2.41887 21.1425 2.18818 20.5625 2.1875H17.0625V0.875C17.0625 0.642939 16.9703 0.420386 16.8062 0.256294C16.6421 0.0922026 16.4196 1.16022e-05 16.1875 0L8.3125 0C8.08044 1.16022e-05 7.85789 0.0922026 7.69379 0.256294C7.5297 0.420386 7.43751 0.642939 7.4375 0.875V2.1875H3.9375C3.35755 2.18818 2.80155 2.41887 2.39146 2.82896C1.98137 3.23905 1.75068 3.79505 1.75 4.375V23.1875C1.75068 23.7675 1.98137 24.3235 2.39146 24.7335C2.80155 25.1436 3.35755 25.3743 3.9375 25.375H9.1875C9.13495 25.6949 9.15185 26.0223 9.23705 26.335C9.32225 26.6478 9.47375 26.9385 9.68126 27.1875C9.88877 27.4365 10.1474 27.638 10.4397 27.7782C10.732 27.9184 11.051 27.994 11.375 28H20.125C20.3566 27.9977 20.5783 27.9058 20.7437 27.7437L25.9937 22.4937C26.1549 22.3277 26.2466 22.1064 26.25 21.875V10.9375C26.2493 10.3575 26.0186 9.80154 25.6085 9.39146C25.1985 8.98137 24.6425 8.75068 24.0625 8.75ZM9.1875 1.75H15.3125V4.375H9.1875V1.75ZM3.9375 23.625C3.8215 23.6249 3.71029 23.5788 3.62827 23.4967C3.54625 23.4147 3.50012 23.3035 3.5 23.1875V4.375C3.50012 4.259 3.54625 4.14779 3.62827 4.06577C3.71029 3.98375 3.8215 3.93762 3.9375 3.9375H7.4375V5.25C7.43751 5.48206 7.5297 5.70461 7.69379 5.86871C7.85789 6.0328 8.08044 6.12499 8.3125 6.125H16.1875C16.4196 6.12499 16.6421 6.0328 16.8062 5.86871C16.9703 5.70461 17.0625 5.48206 17.0625 5.25V3.9375H20.5625C20.6785 3.93762 20.7897 3.98375 20.8717 4.06577C20.9538 4.14779 20.9999 4.259 21 4.375V8.75H11.375C10.795 8.75068 10.239 8.98137 9.82896 9.39146C9.41887 9.80155 9.18818 10.3575 9.1875 10.9375V23.625H3.9375ZM10.9375 25.8125V10.9375C10.9376 10.8215 10.9837 10.7103 11.0658 10.6283C11.1478 10.5462 11.259 10.5001 11.375 10.5H24.0625C24.1785 10.5001 24.2897 10.5462 24.3717 10.6283C24.4538 10.7103 24.4999 10.8215 24.5 10.9375V21H21.4375C20.8575 21.0007 20.3015 21.2314 19.8915 21.6415C19.4814 22.0515 19.2507 22.6075 19.25 23.1875V26.25H11.375C11.259 26.2499 11.1478 26.2038 11.0658 26.1217C10.9837 26.0397 10.9376 25.9285 10.9375 25.8125ZM21 25.0125C21.0443 22.2898 20.5484 22.7968 23.2625 22.75C22.6987 23.3139 21.5638 24.4488 21 25.0125Z" fill="#000066" stroke="#000066" stroke-width="0.5"/>
<path d="M14.4376 14.4375H21.4376C21.6675 14.4342 21.8868 14.3405 22.0482 14.1768C22.2095 14.013 22.3 13.7924 22.3 13.5625C22.3 13.3326 22.2095 13.1119 22.0481 12.9482C21.8868 12.7845 21.6674 12.6908 21.4376 12.6875H14.4376C14.2077 12.6908 13.9884 12.7845 13.827 12.9482C13.6657 13.1119 13.5752 13.3326 13.5752 13.5625C13.5752 13.7924 13.6657 14.0131 13.827 14.1768C13.9884 14.3405 14.2077 14.4342 14.4376 14.4375ZM14.4376 18.375H21.4376C21.6675 18.3717 21.8868 18.278 22.0482 18.1143C22.2095 17.9505 22.3 17.7299 22.3 17.5C22.3 17.2701 22.2095 17.0494 22.0481 16.8857C21.8868 16.722 21.6674 16.6283 21.4376 16.625H14.4376C14.2077 16.6283 13.9884 16.722 13.827 16.8857C13.6657 17.0494 13.5752 17.2701 13.5752 17.5C13.5752 17.7299 13.6657 17.9506 13.827 18.1143C13.9884 18.278 14.2077 18.3717 14.4376 18.375ZM14.4376 20.5625C14.2077 20.5658 13.9884 20.6595 13.827 20.8232C13.6657 20.987 13.5752 21.2076 13.5752 21.4375C13.5752 21.6674 13.6657 21.8881 13.8271 22.0518C13.9885 22.2155 14.2078 22.3092 14.4376 22.3125C14.6675 22.3092 14.8868 22.2155 15.0482 22.0518C15.2096 21.888 15.3 21.6674 15.3 21.4375C15.3 21.2076 15.2096 20.9869 15.0482 20.8232C14.8868 20.6595 14.6675 20.5658 14.4376 20.5625Z" fill="#FF0028"/>
</g>
<defs>
<clipPath id="clip0_165_1590">
<rect width="28" height="28" fill="white"/>
</clipPath>
</defs>
</svg>
