<svg width="20" height="20" viewBox="0 0 20 20" fill="none" xmlns="http://www.w3.org/2000/svg">
<path d="M9.99965 18.5901C14.744 18.5901 18.5901 14.744 18.5901 9.99966C18.5901 5.25527 14.744 1.40918 9.99965 1.40918C5.25527 1.40918 1.40918 5.25527 1.40918 9.99966C1.40918 14.744 5.25527 18.5901 9.99965 18.5901Z" stroke="#000066" stroke-width="2"/>
<path d="M9.41818 6.49134C9.46601 6.50578 9.51292 6.5231 9.55867 6.54319L9.42855 6.48851C9.59472 6.55924 9.75124 6.6508 9.89433 6.76099L9.78401 6.67613C9.9129 6.77534 10.0288 6.89032 10.1291 7.01839L10.0442 6.90808C10.1372 7.02857 10.2145 7.16036 10.2743 7.30031L10.2196 7.17019C10.2842 7.32503 10.3282 7.48763 10.3507 7.65388L10.3309 7.50962C10.3579 7.71649 10.3579 7.92598 10.3309 8.13285L10.3507 7.98859C10.3278 8.16361 10.2819 8.33482 10.2139 8.49774L10.2686 8.36762C10.2091 8.50616 10.1325 8.63667 10.0405 8.75608L10.1253 8.64576C10.0272 8.77068 9.9142 8.8831 9.78873 8.98048L9.89903 8.89562C9.72988 9.02447 9.54481 9.13095 9.3484 9.21242L9.47852 9.15773C9.18506 9.27704 8.8773 9.35754 8.56301 9.39722L8.70727 9.37742C8.44569 9.41173 8.18178 9.42497 7.91809 9.41702C7.77436 9.41801 7.6368 9.47554 7.53517 9.57718C7.43353 9.67881 7.37599 9.81638 7.375 9.96011V10.1157L7.39481 10.2599C7.41983 10.3505 7.4679 10.433 7.53435 10.4994L7.54095 10.507L7.60978 10.5928L7.92753 10.9916L9.00238 12.3418L10.1253 13.7561L10.6514 14.416C10.701 14.4675 10.7607 14.5083 10.8267 14.5357C10.8927 14.5631 10.9637 14.5766 11.0352 14.5754C11.1792 14.5754 11.3174 14.5182 11.4192 14.4163C11.5211 14.3145 11.5783 14.1763 11.5783 14.0323L11.5585 13.888C11.5335 13.7975 11.4854 13.715 11.4189 13.6486L10.9022 12.9989L9.78212 11.5922L8.70443 10.2382L8.30278 9.73382L8.46211 10.1176V9.96199L7.91904 10.5051C8.37543 10.5191 8.83167 10.4725 9.27581 10.3665C9.51155 10.3065 9.74131 10.2251 9.9622 10.1232C10.1756 10.0224 10.3757 9.89576 10.5581 9.74608C10.9282 9.4493 11.1983 9.04618 11.3322 8.59108C11.406 8.33429 11.4422 8.06815 11.4397 7.80096C11.4406 7.55448 11.4067 7.30909 11.3388 7.07213C11.2232 6.68103 11.0081 6.32659 10.7146 6.04348C10.5178 5.85322 10.2914 5.69623 10.0442 5.57865C9.93667 5.52506 9.82507 5.47998 9.71046 5.44382C9.57155 5.40556 9.42314 5.42405 9.29786 5.49522C9.17258 5.56639 9.08071 5.68441 9.04245 5.82332C9.00419 5.96223 9.02269 6.11065 9.09386 6.23593C9.16503 6.3612 9.28304 6.45308 9.42195 6.49134H9.41818Z" fill="#FF0028" stroke="#FF0028" stroke-width="0.4"/>
<path d="M7.46789 6.51049H12.532C12.676 6.51049 12.8141 6.45327 12.916 6.35142C13.0178 6.24957 13.0751 6.11144 13.0751 5.9674C13.0751 5.82337 13.0178 5.68523 12.916 5.58338C12.8141 5.48153 12.676 5.42432 12.532 5.42432H7.46789C7.32386 5.42432 7.18573 5.48153 7.08388 5.58338C6.98203 5.68523 6.9248 5.82337 6.9248 5.9674C6.9248 6.11144 6.98203 6.24957 7.08388 6.35142C7.18573 6.45327 7.32386 6.51049 7.46789 6.51049Z" fill="#FF0028" stroke="#FF0028" stroke-width="0.4"/>
<path d="M12.5334 7.30322H7.46936C7.39804 7.30322 7.32742 7.31726 7.26153 7.34456C7.19564 7.37185 7.13576 7.41185 7.08533 7.46228C7.0349 7.51271 6.9949 7.57257 6.9676 7.63846C6.94031 7.70436 6.92627 7.77498 6.92627 7.8463C6.92627 7.91762 6.94031 7.98824 6.9676 8.05413C6.9949 8.12002 7.0349 8.1799 7.08533 8.23033C7.13576 8.28076 7.19564 8.32076 7.26153 8.34805C7.32742 8.37535 7.39804 8.38939 7.46936 8.38939H12.5334C12.6048 8.38939 12.6754 8.37535 12.7413 8.34805C12.8072 8.32076 12.867 8.28076 12.9175 8.23033C12.9679 8.1799 13.0079 8.12002 13.0352 8.05413C13.0625 7.98824 13.0765 7.91762 13.0765 7.8463C13.0765 7.77498 13.0625 7.70436 13.0352 7.63846C13.0079 7.57257 12.9679 7.51271 12.9175 7.46228C12.867 7.41185 12.8072 7.37185 12.7413 7.34456C12.6754 7.31726 12.6048 7.30322 12.5334 7.30322Z" fill="#FF0028" stroke="#FF0028" stroke-width="0.4"/>
</svg>
