<svg width="38" height="38" viewBox="0 0 38 38" fill="none" xmlns="http://www.w3.org/2000/svg">
<g clip-path="url(#clip0_194_1746)">
<path d="M32.418 11.9997H30.668V6.16634C30.6671 5.39307 30.3595 4.65173 29.8127 4.10495C29.2659 3.55816 28.5246 3.25058 27.7513 3.24967H23.0846V1.49967C23.0846 1.19026 22.9617 0.893523 22.7429 0.674734C22.5241 0.455945 22.2274 0.333023 21.918 0.333008L11.418 0.333008C11.1086 0.333023 10.8118 0.455945 10.593 0.674734C10.3742 0.893523 10.2513 1.19026 10.2513 1.49967V3.24967H5.58464C4.81137 3.25058 4.07003 3.55817 3.52325 4.10495C2.97646 4.65173 2.66888 5.39307 2.66797 6.16634V31.2497C2.66888 32.0229 2.97646 32.7643 3.52325 33.3111C4.07003 33.8578 4.81137 34.1654 5.58464 34.1663H12.5846C12.5146 34.5928 12.5371 35.0294 12.6507 35.4464C12.7643 35.8634 12.9663 36.251 13.243 36.583C13.5197 36.915 13.8646 37.1836 14.2542 37.3706C14.6439 37.5575 15.0692 37.6584 15.5014 37.6663H27.168C27.4768 37.6633 27.7724 37.5408 27.9928 37.3245L34.9928 30.3245C35.2079 30.1033 35.3302 29.8082 35.3346 29.4997V14.9163C35.3337 14.1431 35.0261 13.4017 34.4794 12.8549C33.9326 12.3082 33.1912 12.0006 32.418 11.9997V11.9997ZM12.5846 2.66634H20.7513V6.16634H12.5846V2.66634ZM5.58464 31.833C5.42997 31.8329 5.28169 31.7713 5.17233 31.662C5.06296 31.5526 5.00146 31.4043 5.0013 31.2497V6.16634C5.00146 6.01168 5.06296 5.8634 5.17233 5.75403C5.28169 5.64467 5.42997 5.58316 5.58464 5.58301H10.2513V7.33301C10.2513 7.64242 10.3742 7.93916 10.593 8.15795C10.8118 8.37674 11.1086 8.49966 11.418 8.49967H21.918C22.2274 8.49966 22.5241 8.37674 22.7429 8.15795C22.9617 7.93916 23.0846 7.64242 23.0846 7.33301V5.58301H27.7513C27.906 5.58316 28.0542 5.64467 28.1636 5.75403C28.273 5.8634 28.3345 6.01168 28.3346 6.16634V11.9997H15.5013C14.728 12.0006 13.9867 12.3082 13.4399 12.855C12.8931 13.4017 12.5855 14.1431 12.5846 14.9163V31.833H5.58464ZM14.918 34.7497V14.9163C14.9181 14.7617 14.9796 14.6134 15.089 14.504C15.1984 14.3947 15.3466 14.3332 15.5013 14.333H32.418C32.5726 14.3332 32.7209 14.3947 32.8303 14.504C32.9396 14.6134 33.0011 14.7617 33.0013 14.9163V28.333H28.918C28.1447 28.3339 27.4034 28.6415 26.8566 29.1883C26.3098 29.7351 26.0022 30.4764 26.0013 31.2497V35.333H15.5013C15.3466 35.3329 15.1984 35.2713 15.089 35.162C14.9796 35.0526 14.9181 34.9043 14.918 34.7497ZM28.3346 33.683C28.3937 30.0528 27.7325 30.7288 31.3513 30.6663C30.5996 31.4182 29.0863 32.9314 28.3346 33.683Z" fill="#000066" stroke="#000066" stroke-width="0.5"/>
<path d="M19.5835 19.5831H28.9168C29.2233 19.5786 29.5157 19.4538 29.7309 19.2354C29.9461 19.0171 30.0667 18.7229 30.0667 18.4164C30.0667 18.1099 29.946 17.8157 29.7309 17.5974C29.5157 17.3791 29.2232 17.2542 28.9168 17.2498H19.5835C19.277 17.2542 18.9845 17.3791 18.7694 17.5974C18.5542 17.8157 18.4336 18.1099 18.4336 18.4164C18.4336 18.7229 18.5542 19.0172 18.7694 19.2355C18.9845 19.4538 19.277 19.5786 19.5835 19.5831ZM19.5835 24.8331H28.9168C29.2233 24.8286 29.5157 24.7038 29.7309 24.4854C29.9461 24.2671 30.0667 23.9729 30.0667 23.6664C30.0667 23.3599 29.946 23.0657 29.7309 22.8474C29.5157 22.6291 29.2232 22.5042 28.9168 22.4998H19.5835C19.277 22.5042 18.9845 22.6291 18.7694 22.8474C18.5542 23.0657 18.4336 23.3599 18.4336 23.6664C18.4336 23.9729 18.5542 24.2672 18.7694 24.4855C18.9845 24.7038 19.277 24.8286 19.5835 24.8331ZM19.5835 27.7498C19.277 27.7542 18.9846 27.8791 18.7694 28.0974C18.5542 28.3157 18.4336 28.6099 18.4336 28.9164C18.4336 29.223 18.5543 29.5172 18.7694 29.7355C18.9846 29.9538 19.277 30.0787 19.5835 30.0831C19.89 30.0786 20.1824 29.9538 20.3976 29.7354C20.6128 29.5171 20.7334 29.2229 20.7334 28.9164C20.7334 28.6099 20.6128 28.3157 20.3976 28.0974C20.1824 27.8791 19.89 27.7542 19.5835 27.7498Z" fill="#FF0028"/>
</g>
<defs>
<clipPath id="clip0_194_1746">
<rect width="37.3333" height="37.3333" fill="white" transform="translate(0.333984 0.333008)"/>
</clipPath>
</defs>
</svg>
