<svg width="28" height="28" viewBox="0 0 28 28" fill="none" xmlns="http://www.w3.org/2000/svg">
<path d="M21.4413 17.0167C21.5469 17.1944 21.6996 17.3332 21.8757 17.4245C23.2215 18.1233 24.1506 19.6109 24.1506 21.3333V24C24.1506 24.5523 24.5647 25 25.0753 25C25.5861 25 26 24.5523 26 24V21.3333C26 17.8355 23.3781 15 20.1437 15C20.0098 15 19.9494 15.1869 20.0508 15.2819C20.5873 15.784 21.0564 16.3684 21.4413 17.0167Z" fill="#FF0028"/>
<path fill-rule="evenodd" clip-rule="evenodd" d="M7.12903 17C4.81299 17 2.93548 18.9401 2.93548 21.3333V24C2.93548 24.5523 2.50221 25 1.96774 25C1.43328 25 1 24.5523 1 24V21.3333C1 17.8355 3.74406 15 7.12903 15H14.871C18.256 15 21 17.8355 21 21.3333V24C21 24.5523 20.5667 25 20.0323 25C19.4978 25 19.0645 24.5523 19.0645 24V21.3333C19.0645 18.9401 17.187 17 14.871 17H7.12903Z" fill="#000066"/>
<path d="M17.1747 11.0165C17.2834 10.784 17.4563 10.5984 17.6576 10.4652C18.5605 9.86786 19.1665 8.76354 19.1665 7.5C19.1665 6.23646 18.5605 5.13214 17.6576 4.5348C17.4563 4.40163 17.2834 4.21595 17.1747 3.98347C16.8709 3.33389 16.4855 2.74012 16.0339 2.21937C15.9634 2.13801 16.0097 2 16.1108 2C18.811 2 21 4.46243 21 7.5C21 10.5376 18.811 13 16.1108 13C16.0097 13 15.9634 12.8619 16.0339 12.7807C16.4855 12.2598 16.8709 11.6661 17.1747 11.0165Z" fill="#FF0028"/>
<path fill-rule="evenodd" clip-rule="evenodd" d="M11.5 10.9375C13.3985 10.9375 14.9375 9.39848 14.9375 7.5C14.9375 5.60152 13.3985 4.0625 11.5 4.0625C9.60152 4.0625 8.0625 5.60152 8.0625 7.5C8.0625 9.39848 9.60152 10.9375 11.5 10.9375ZM11.5 13C14.5375 13 17 10.5376 17 7.5C17 4.46243 14.5375 2 11.5 2C8.46243 2 6 4.46243 6 7.5C6 10.5376 8.46243 13 11.5 13Z" fill="#000066"/>
</svg>
