<svg width="26" height="36" viewBox="0 0 26 36" fill="none" xmlns="http://www.w3.org/2000/svg">
<g clip-path="url(#clip0_202_63)">
<path d="M22.4547 9.59987H21.2735V1.19917C21.2735 0.994691 21.2221 0.793598 21.124 0.614989C21.026 0.436381 20.8846 0.286189 20.7133 0.178679C20.542 0.0711685 20.3465 0.00991039 20.1453 0.000723148C19.9441 -0.00846409 19.744 0.0347246 19.5639 0.126187L16.5469 1.65786L13.53 0.126187C13.3659 0.0430046 13.185 -0.000297035 13.0016 -0.000297035C12.8182 -0.000297035 12.6373 0.0430046 12.4732 0.126187L9.45629 1.65786L6.43934 0.126187C6.25923 0.0347246 6.05908 -0.00846409 5.8579 0.000723148C5.65673 0.00991039 5.4612 0.0711685 5.28991 0.178679C5.11861 0.286189 4.97722 0.436381 4.87918 0.614989C4.78114 0.793598 4.7297 0.994691 4.72974 1.19917V9.59987H3.5485C2.60806 9.6003 1.70622 9.9796 1.04093 10.6545C0.375637 11.3294 0.00126848 12.2448 0 13.1997V32.3999C0.00126698 33.3543 0.375197 34.2691 1.0398 34.944C1.7044 35.6188 2.60542 35.9985 3.54531 35.9998H22.4547C23.3946 35.9985 24.2956 35.6188 24.9602 34.944C25.6248 34.2691 25.9987 33.3543 26 32.3999V13.1997C25.9987 12.2454 25.6248 11.3305 24.9602 10.6557C24.2956 9.98084 23.3946 9.60116 22.4547 9.59987V9.59987ZM7.09062 3.14091L8.92633 4.07288C9.09041 4.15606 9.27129 4.19936 9.45469 4.19936C9.63809 4.19936 9.81897 4.15606 9.98305 4.07288L13 2.54121L16.0169 4.07288C16.181 4.15606 16.3619 4.19936 16.5453 4.19936C16.7287 4.19936 16.9096 4.15606 17.0737 4.07288L18.9094 3.14091V13.7994H7.097L7.09062 3.14091ZM23.6359 32.3999C23.6355 32.7179 23.5109 33.0227 23.2895 33.2476C23.0681 33.4724 22.7678 33.5989 22.4547 33.5993H3.54531C3.23215 33.5989 2.93195 33.4724 2.71051 33.2476C2.48908 33.0227 2.36449 32.7179 2.36407 32.3999V13.1997C2.36449 12.8817 2.48908 12.5769 2.71051 12.3521C2.93195 12.1272 3.23215 12.0007 3.54531 12.0003H4.72655V13.801C4.41305 13.801 4.1124 13.9275 3.89072 14.1526C3.66905 14.3777 3.54451 14.6829 3.54451 15.0012C3.54451 15.3196 3.66905 15.6248 3.89072 15.8499C4.1124 16.075 4.41305 16.2015 4.72655 16.2015H21.2735C21.5869 16.2015 21.8876 16.075 22.1093 15.8499C22.331 15.6248 22.4555 15.3196 22.4555 15.0012C22.4555 14.6829 22.331 14.3777 22.1093 14.1526C21.8876 13.9275 21.5869 13.801 21.2735 13.801V11.9938H22.4547C22.7678 11.9942 23.0681 12.1208 23.2895 12.3456C23.5109 12.5704 23.6355 12.8753 23.6359 13.1932V32.3999Z" fill="#000066" stroke="#000066" stroke-width="0.3"/>
<path d="M17.9876 17.96H8.01096C7.48202 17.9608 6.97499 18.1745 6.60098 18.5543C6.22696 18.9341 6.01647 19.4489 6.01562 19.986V21.3491C6.01647 21.8862 6.22696 22.401 6.60098 22.7808C6.97499 23.1605 7.48202 23.3743 8.01096 23.3751H17.9876C18.5166 23.3743 19.0236 23.1605 19.3976 22.7808C19.7716 22.401 19.9821 21.8862 19.983 21.3491V19.986C19.9821 19.4489 19.7716 18.9341 19.3976 18.5543C19.0236 18.1745 18.5166 17.9608 17.9876 17.96Z" fill="#FF0028"/>
<path d="M10.636 25.7998H8.27188C7.95838 25.7998 7.65773 25.9263 7.43605 26.1513C7.21438 26.3764 7.08984 26.6817 7.08984 27C7.08984 27.3183 7.21438 27.6236 7.43605 27.8487C7.65773 28.0738 7.95838 28.2002 8.27188 28.2002H10.636C10.9494 28.2002 11.2501 28.0738 11.4718 27.8487C11.6934 27.6236 11.818 27.3183 11.818 27C11.818 26.6817 11.6934 26.3764 11.4718 26.1513C11.2501 25.9263 10.9494 25.7998 10.636 25.7998Z" fill="#000066" stroke="#000066" stroke-width="0.3"/>
<path d="M17.7258 25.7998H15.3617C15.0482 25.7998 14.7476 25.9263 14.5259 26.1513C14.3042 26.3764 14.1797 26.6817 14.1797 27C14.1797 27.3183 14.3042 27.6236 14.5259 27.8487C14.7476 28.0738 15.0482 28.2002 15.3617 28.2002H17.7258C18.0393 28.2002 18.3399 28.0738 18.5616 27.8487C18.7833 27.6236 18.9078 27.3183 18.9078 27C18.9078 26.6817 18.7833 26.3764 18.5616 26.1513C18.3399 25.9263 18.0393 25.7998 17.7258 25.7998Z" fill="#000066" stroke="#000066" stroke-width="0.3"/>
<path d="M10.636 29.3997H8.27188C7.95838 29.3997 7.65773 29.5261 7.43605 29.7512C7.21438 29.9763 7.08984 30.2816 7.08984 30.5999C7.08984 30.9182 7.21438 31.2235 7.43605 31.4486C7.65773 31.6736 7.95838 31.8001 8.27188 31.8001H10.636C10.9494 31.8001 11.2501 31.6736 11.4718 31.4486C11.6934 31.2235 11.818 30.9182 11.818 30.5999C11.818 30.2816 11.6934 29.9763 11.4718 29.7512C11.2501 29.5261 10.9494 29.3997 10.636 29.3997Z" fill="#000066" stroke="#000066" stroke-width="0.3"/>
<path d="M17.7258 29.3997H15.3617C15.0482 29.3997 14.7476 29.5261 14.5259 29.7512C14.3042 29.9763 14.1797 30.2816 14.1797 30.5999C14.1797 30.9182 14.3042 31.2235 14.5259 31.4486C14.7476 31.6736 15.0482 31.8001 15.3617 31.8001H17.7258C18.0393 31.8001 18.3399 31.6736 18.5616 31.4486C18.7833 31.2235 18.9078 30.9182 18.9078 30.5999C18.9078 30.2816 18.7833 29.9763 18.5616 29.7512C18.3399 29.5261 18.0393 29.3997 17.7258 29.3997Z" fill="#000066" stroke="#000066" stroke-width="0.3"/>
<path d="M13.0004 7.80058H15.9551C16.1103 7.80058 16.264 7.76953 16.4074 7.70922C16.5508 7.6489 16.6811 7.56049 16.7909 7.44904C16.9007 7.33759 16.9877 7.20528 17.0471 7.05966C17.1065 6.91405 17.1371 6.75798 17.1371 6.60036C17.1371 6.44275 17.1065 6.28668 17.0471 6.14106C16.9877 5.99544 16.9007 5.86313 16.7909 5.75168C16.6811 5.64023 16.5508 5.55182 16.4074 5.49151C16.264 5.43119 16.1103 5.40015 15.9551 5.40015H13.0004C12.8452 5.40015 12.6915 5.43119 12.548 5.49151C12.4046 5.55182 12.2743 5.64023 12.1646 5.75168C12.0548 5.86313 11.9677 5.99544 11.9083 6.14106C11.8489 6.28668 11.8184 6.44275 11.8184 6.60036C11.8184 6.75798 11.8489 6.91405 11.9083 7.05966C11.9677 7.20528 12.0548 7.33759 12.1646 7.44904C12.2743 7.56049 12.4046 7.6489 12.548 7.70922C12.6915 7.76953 12.8452 7.80058 13.0004 7.80058Z" fill="#FF0028"/>
<path d="M10.0453 12.0003H15.9515C16.265 12.0003 16.5657 11.8738 16.7873 11.6487C17.009 11.4237 17.1335 11.1184 17.1335 10.8001C17.1335 10.4818 17.009 10.1765 16.7873 9.95139C16.5657 9.7263 16.265 9.59985 15.9515 9.59985H10.0453C9.73182 9.59985 9.43116 9.7263 9.20949 9.95139C8.98782 10.1765 8.86328 10.4818 8.86328 10.8001C8.86328 11.1184 8.98782 11.4237 9.20949 11.6487C9.43116 11.8738 9.73182 12.0003 10.0453 12.0003Z" fill="#FF0028"/>
</g>
<defs>
<clipPath id="clip0_202_63">
<rect width="26" height="36" fill="white" transform="translate(0 -0.000244141)"/>
</clipPath>
</defs>
</svg>
