<svg width="22" height="27" viewBox="0 0 22 27" fill="none" xmlns="http://www.w3.org/2000/svg">
<path d="M10.6723 2.29455C11.5161 2.29424 12.3411 2.54419 13.0429 3.01278C13.7447 3.48136 14.2917 4.14754 14.6148 4.92706C14.938 5.70657 15.0227 6.56441 14.8582 7.39207C14.6938 8.21973 14.2876 8.98003 13.691 9.57682C13.0945 10.1736 12.3343 10.5801 11.5067 10.7448C10.6791 10.9096 9.82125 10.8252 9.04161 10.5023C8.26198 10.1795 7.5956 9.63265 7.12676 8.93105C6.65792 8.22945 6.40767 7.40456 6.40767 6.56073C6.40767 5.42953 6.85693 4.34465 7.65666 3.54463C8.45639 2.74461 9.54111 2.29496 10.6723 2.29455ZM10.6723 0.523682C9.47829 0.523682 8.31109 0.877748 7.3183 1.54111C6.32551 2.20447 5.55173 3.14732 5.0948 4.25045C4.63787 5.35358 4.51832 6.56742 4.75126 7.7385C4.9842 8.90957 5.55917 9.98527 6.40347 10.8296C7.24776 11.6739 8.32346 12.2488 9.49453 12.4818C10.6656 12.7147 11.8795 12.5952 12.9826 12.1382C14.0857 11.6813 15.0286 10.9075 15.6919 9.91473C16.3553 8.92194 16.7093 7.75474 16.7093 6.56073C16.7093 4.9596 16.0733 3.42406 14.9411 2.29189C13.809 1.15973 12.2734 0.523682 10.6723 0.523682Z" fill="#FF0028" stroke="#FF0028" stroke-width="0.5"/>
<path d="M13.6722 16.119C14.4033 16.119 15.1273 16.2633 15.8026 16.5435C16.478 16.8237 17.0914 17.2344 17.6077 17.7521C18.1241 18.2697 18.5333 18.8841 18.8118 19.5602C19.0903 20.2362 19.2327 20.9605 19.2309 21.6917V22.6731C19.2309 23.0436 19.0845 23.3991 18.8235 23.6621C18.5626 23.925 18.2082 24.0742 17.8377 24.0771H3.50828C3.1378 24.0742 2.78346 23.925 2.5225 23.6621C2.26154 23.3991 2.1151 23.0436 2.11511 22.6731V21.6731C2.11633 20.9427 2.26147 20.2198 2.54224 19.5455C2.82301 18.8713 3.2339 18.2589 3.75143 17.7436C4.26897 17.2282 4.88299 16.8199 5.55841 16.5419C6.23383 16.264 6.9574 16.1218 7.68777 16.1237H13.6815L13.6722 16.119ZM13.6815 14.3621H7.68313C5.73889 14.3558 3.87163 15.1213 2.49127 16.4905C1.11867 17.8644 0.346619 19.7264 0.344248 21.6685V22.6499C0.343227 23.0657 0.42437 23.4776 0.583016 23.8619C0.741662 24.2462 0.974684 24.5954 1.26869 24.8895C1.56271 25.1835 1.91191 25.4165 2.29625 25.5751C2.68059 25.7338 3.09249 25.8149 3.50828 25.8139H17.8362C18.6754 25.8139 19.4801 25.4805 20.0735 24.8872C20.6669 24.2938 21.0002 23.489 21.0002 22.6499V21.6685C20.9991 19.7248 20.2269 17.8609 18.8532 16.4859C17.4785 15.1125 15.6153 14.3404 13.6722 14.3389L13.6815 14.3621Z" fill="#000066" stroke="#000066" stroke-width="0.5"/>
</svg>
